# xmcd CD database file
#
# Track frame offsets:
#	180
#	68264
#	98727
#	120527
#	155180
#	177744
#	198720
#
# Disc length: 3131 seconds
#
# Revision: 0
# Processed by: cddbd v1.5.2PL0 Copyright (c) Steve Scherf et al.
# Submitted via: CDex 1.70beta2
#
DISCID=5f0c3907
DTITLE=Chris Barber - Swing is Here!
DYEAR=1995
DGENRE=Jazz
TTITLE0=Home Focus
TTITLE1=Mood Indigo
TTITLE2='Taint What You Do
TTITLE3=Georgia
TTITLE4=Some Day You'll Be Sorry
TTITLE5=Muskrat Ramble
TTITLE6=When The Saints Go Marchin' In
EXTD=YEAR: 1995
EXTT0=
EXTT1=
EXTT2=
EXTT3=
EXTT4=
EXTT5=
EXTT6=
PLAYORDER=
